<svg xmlns="http://www.w3.org/2000/svg" width="446.894" height="459.771" viewBox="0 0 446.894 459.771">
  <defs>
    <style>
      .cls-1 {
        fill: #48742b;
      }
    </style>
  </defs>
  <g id="bird" transform="translate(-7.17)">
    <path id="Path_27" data-name="Path 27" class="cls-1" d="M85.707,434.735a297.951,297.951,0,0,0-31.376,29.644c-27.59-34.7-32.659-75.782-33.509-93.318,52.144,13.489,107.274,2.563,109.724,2.064A6.735,6.735,0,0,0,133,360.961c-52.739-35.969-78.234-83.607-75.774-141.59a6.735,6.735,0,0,0-13.457-.571c-1.179,27.8,3.764,53.908,14.694,77.588,11.409,24.718,29.386,46.822,53.55,65.879-21.349,2.462-60.736,4.6-96-6.6a6.736,6.736,0,0,0-8.764,6.069c-.141,2.716-2.94,67.1,41.945,117.444a6.733,6.733,0,0,0,5.028,2.252h.124a6.739,6.739,0,0,0,5.066-2.44,277.544,277.544,0,0,1,34.79-33.8,6.735,6.735,0,0,0-8.493-10.454Z" transform="translate(0 -21.664)"/>
    <path id="Path_28" data-name="Path 28" class="cls-1" d="M340.641,277.845a12.767,12.767,0,1,0-12.767,12.767A12.782,12.782,0,0,0,340.641,277.845Z" transform="translate(-31.416 -27.043)"/>
    <path id="Path_29" data-name="Path 29" class="cls-1" d="M452.606,166.277c-1.232-.142-30.415-3.313-49.889,13.378a51.464,51.464,0,0,0-10.656,12.864,264.611,264.611,0,0,0-12.108-45.51q-2.282-6.319-4.72-12.214c9.657-3.539,26.1-11.518,34.951-26.938,12.771-22.241,4.22-50.323,3.85-51.507a6.737,6.737,0,0,0-7.933-4.555c-1.21.277-29.773,7.048-42.544,29.289h0a52.264,52.264,0,0,0-6.074,17.477,260.707,260.707,0,0,0-15.366-23.936c1.438-8.253,3.839-30.463-7.676-47.925C320.321,5.286,291.395.292,290.17.09a6.739,6.739,0,0,0-7.636,5.036c-.3,1.205-7.1,29.761,7.02,51.171,11.753,17.822,33.752,24.266,41.507,26.043a290.88,290.88,0,0,1,36.365,69.635c.19.53.368,1.06.555,1.589a51.727,51.727,0,0,0-15.129-8.425c-24.247-8.358-50.218,5.326-51.311,5.912a6.735,6.735,0,0,0-2.98,8.648c.5,1.136,12.525,27.915,36.771,36.272a51.64,51.64,0,0,0,16.878,2.7,77.361,77.361,0,0,0,26.377-5.087,214.339,214.339,0,0,1,3.208,31.476c.115,4.411.065,8.79-.114,13.143l-24.486-4.817c-4.588-7.151-18.351-25.6-41.306-31.449-17.244-4.39-35.583-.709-54.553,10.929a99.566,99.566,0,0,1-28.092-14.4,6.735,6.735,0,0,0-7.9,10.911A117.39,117.39,0,0,0,246.232,221.5c-32.317,15.279-61.48,7.327-81.139-2.908a131.333,131.333,0,0,1-20.2-13.123c-.407-10.358-.485-47.569,16.507-83.194,6.924,16.575,20.787,44.749,42.811,68.3a6.735,6.735,0,0,0,9.838-9.2c-30.7-32.83-45-76.854-45.141-77.292a6.793,6.793,0,0,0-12.163-1.47c-20.489,33.512-24.765,70.428-25.379,90.908a169.481,169.481,0,0,1-21.5-26.148c-13.886-20.8-22.2-43.21-22.815-61.473A6.735,6.735,0,0,0,74.5,102.749c-.656,1.129-16.137,28.083-23.108,66.609a6.734,6.734,0,0,0,13.253,2.4,221.94,221.94,0,0,1,12.508-42.994c4.073,15.071,11.467,31.047,21.512,46.1,16.06,24.06,37.439,43.836,60.2,55.686,13.45,7,30.789,13.076,50.484,13.075,17.395,0,36.629-4.74,56.627-17.764,16.6-10.813,32.239-14.481,46.471-10.893,22.328,5.624,34.476,27.45,34.588,27.655a6.733,6.733,0,0,0,4.627,3.41l23.183,4.56c-13.193,14.656-39.137,44.881-55.287,72.923-13.375,23.224-33.451,38.588-61.372,46.969-22.11,6.636-48.256,8.779-82.27,6.747-18.753-1.117-39.482,5.151-61.573,18.641a6.735,6.735,0,1,0,7.02,11.5c19.7-12.029,37.78-17.645,53.749-16.691,50.342,3.009,121.3.017,156.117-60.439,13.031-22.626,33.319-47.4,47.017-63.128a183.348,183.348,0,0,1-13.651,41.7,6.735,6.735,0,0,0,12.21,5.688,196.906,196.906,0,0,0,17.823-67.415c.017-.149.024-.3.032-.448q.493-6.184.607-12.447c10.191-.048,28.719-1.95,42.434-13.706,19.473-16.69,20.8-46.015,20.851-47.255A6.737,6.737,0,0,0,452.606,166.277ZM375.237,87.789h0c6.61-11.512,19.6-17.871,27.431-20.809,1.423,8.226,2.48,22.594-4.166,34.168-6.61,11.511-19.6,17.871-27.431,20.808C369.649,113.732,368.591,99.363,375.237,87.789ZM339.72,183.237c-12.539-4.322-21.225-15.866-25.588-23.007,7.841-2.938,21.792-6.679,34.331-2.356s21.225,15.866,25.588,23.008C366.21,183.819,352.257,187.558,339.72,183.237ZM300.8,48.882c-7.308-11.082-7.144-25.542-6.245-33.859,7.987,2.429,21.294,7.948,28.642,19.09,7.3,11.073,7.144,25.519,6.247,33.839C321.437,65.5,308.1,59.953,300.8,48.882ZM428.943,210.251c-10.079,8.639-24.446,10.289-32.81,10.438,1.41-8.228,5.217-22.123,15.351-30.808,10.071-8.631,24.422-10.286,32.79-10.438C442.842,187.694,439.012,201.622,428.943,210.251Z" transform="translate(-4.501 0)"/>
  </g>
</svg>
