<svg xmlns="http://www.w3.org/2000/svg" width="425.081" height="424.992" viewBox="0 0 425.081 424.992">
  <defs>
    <style>
      .cls-1 {
        fill: #48742b;
      }
    </style>
  </defs>
  <g id="Group_9" data-name="Group 9" transform="translate(0 0)">
    <g id="Group_8" data-name="Group 8">
      <path id="Path_45" data-name="Path 45" class="cls-1" d="M114.257,36.7a10.441,10.441,0,0,0-13.684.106L72.062,62.324V58.98a7.083,7.083,0,1,0-14.166,0V75.01L46.088,85.578a7.083,7.083,0,0,0,9.449,10.554l51.941-46.494,51.941,46.494a7.083,7.083,0,1,0,9.449-10.554Z" transform="translate(-8.27 -5.856)"/>
      <path id="Path_46" data-name="Path 46" class="cls-1" d="M152.868,119.52a7.083,7.083,0,0,0-7.083,7.083v49.582H74.953V126.6a7.083,7.083,0,1,0-14.166,0v54.08a9.8,9.8,0,0,0,9.917,9.669h79.332a9.818,9.818,0,0,0,9.917-9.69V126.6A7.084,7.084,0,0,0,152.868,119.52Z" transform="translate(-11.16 -20.355)"/>
      <path id="Path_47" data-name="Path 47" class="cls-1" d="M110.369,221.92A49.582,49.582,0,1,0,159.951,271.5,49.582,49.582,0,0,0,110.369,221.92ZM74.953,271.5a35.479,35.479,0,0,1,28.333-34.707v30.692L77.078,283.2A34.922,34.922,0,0,1,74.953,271.5Zm9.425,23.847,24.894-14.936,20.6,20.6A35.077,35.077,0,0,1,84.377,295.349ZM139.885,291,117.452,268.57V236.795A35.352,35.352,0,0,1,139.885,291Z" transform="translate(-11.16 -37.756)"/>
      <path id="Path_48" data-name="Path 48" class="cls-1" d="M424.15,133.351V109.105a11.178,11.178,0,0,0-11.17-11.17H392.821a11.178,11.178,0,0,0-11.17,11.17v24.246H367.484V88.94A12.268,12.268,0,0,0,355.23,76.685H337.238A12.269,12.269,0,0,0,324.985,88.94v44.412H310.819V55.436a14.167,14.167,0,0,0-14.167-14.167H282.485a14.167,14.167,0,0,0-14.167,14.167v77.916h-7.083a7.083,7.083,0,0,1-7.083-7.083v-85a7.083,7.083,0,0,0-14.166,0v85a21.25,21.25,0,0,0,21.25,21.25H424.151a7.083,7.083,0,1,0,0-14.167Zm-127.5,0H282.485V55.436h14.167Zm56.666,0H339.151v-42.5h14.167Zm56.665,0H395.817V112.1h14.167v21.25Z" transform="translate(-41.613 -5.854)"/>
      <path id="Path_49" data-name="Path 49" class="cls-1" d="M424.15,304.018H261.236a7.083,7.083,0,0,1-7.083-7.083V285.7l23.325-23.325a7.231,7.231,0,0,1,10.016,0l8.3,8.3a21.249,21.249,0,0,0,30.047,0l29.551-29.551a7.231,7.231,0,0,1,10.016,0l8.3,8.309a21.291,21.291,0,0,0,30.047,0l25.4-25.4a7.083,7.083,0,0,0-10.016-10.016l-25.4,25.393a7.083,7.083,0,0,1-10.016,0l-8.3-8.3a21.759,21.759,0,0,0-30.047,0l-29.551,29.551a7.083,7.083,0,0,1-10.016,0l-8.294-8.3a21.767,21.767,0,0,0-30.054,0L254.153,265.67V211.937a7.083,7.083,0,0,0-14.166,0v85a21.25,21.25,0,0,0,21.25,21.25H424.151a7.083,7.083,0,0,0,0-14.167Z" transform="translate(-41.613 -34.856)"/>
      <path id="Path_50" data-name="Path 50" class="cls-1" d="M426.037,329.1V39.329A37.54,37.54,0,0,0,390.62.053H36.46A37.541,37.541,0,0,0,1.044,39.329V329.1A37.541,37.541,0,0,0,36.46,368.38H149.792v14.167H121.459a28.333,28.333,0,0,0-28.333,28.333v7.083a7.083,7.083,0,0,0,7.083,7.083H326.872a7.083,7.083,0,0,0,7.083-7.083v-7.083a28.333,28.333,0,0,0-28.333-28.333H277.29V368.38H390.621A37.541,37.541,0,0,0,426.037,329.1ZM305.622,396.713a14.167,14.167,0,0,1,14.167,14.167h-212.5a14.167,14.167,0,0,1,14.167-14.167ZM163.958,382.547V368.38h99.165v14.167ZM390.62,354.214H36.46A23.46,23.46,0,0,1,15.211,329.1V311.715h396.66V329.1A23.46,23.46,0,0,1,390.62,354.214ZM411.87,39.329V297.548H15.211V39.329a23.453,23.453,0,0,1,21.25-25.11H390.621A23.452,23.452,0,0,1,411.87,39.329Z" transform="translate(-1 -0.053)"/>
    </g>
  </g>
</svg>
