<svg id="celsius" xmlns="http://www.w3.org/2000/svg" width="352.014" height="508.938" viewBox="0 0 352.014 508.938">
  <defs>
    <style>
      .cls-1 {
        fill: #48742b;
      }
    </style>
  </defs>
  <path id="Path_9" data-name="Path 9" class="cls-1" d="M67.77,264.45a7.452,7.452,0,0,0-7.455,7.455V380.051L51.279,388.1a49.571,49.571,0,1,0,65.912,0l-9.035-8.053V345.214h3.44a7.455,7.455,0,1,0,0-14.91h-3.44V290.745h3.44a7.455,7.455,0,1,0,0-14.91h-3.44V236.279h3.44a7.455,7.455,0,1,0,0-14.91h-3.44V181.81h3.44a7.455,7.455,0,1,0,0-14.91h-3.44V127.345h3.44a7.455,7.455,0,0,0,0-14.91h-3.44V58.583a23.921,23.921,0,0,0-47.841,0V239.44a7.455,7.455,0,0,0,14.91,0V58.583a9.01,9.01,0,0,1,18.021,0V309.037H75.225V271.9A7.452,7.452,0,0,0,67.77,264.45Zm25.476,59.5v59.443a7.46,7.46,0,0,0,2.5,5.568l11.532,10.278a34.663,34.663,0,1,1-46.074,0l11.532-10.278a7.457,7.457,0,0,0,2.493-5.568V323.947Zm0,0" transform="translate(-0.207 -0.207)"/>
  <path id="Path_10" data-name="Path 10" class="cls-1" d="M142.562,105.287a7.455,7.455,0,1,0-14.91,0V368.326a7.446,7.446,0,0,0,2.5,5.564,69.1,69.1,0,0,1-91.5,103.572,7.455,7.455,0,0,0-9.831,11.21,84.011,84.011,0,0,0,113.749-123.6Zm0,0" transform="translate(-0.157 -0.585)"/>
  <path id="Path_11" data-name="Path 11" class="cls-1" d="M14.91,424.909a69.211,69.211,0,0,1,23.158-51.6,7.448,7.448,0,0,0,2.493-5.564V58.375a43.467,43.467,0,0,1,86.934,0V72.237a7.455,7.455,0,0,0,14.91,0V58.375a58.377,58.377,0,0,0-116.755,0V364.491A83.986,83.986,0,0,0,7.273,459.1a7.455,7.455,0,1,0,13.617-6.073A68.573,68.573,0,0,1,14.91,424.909Zm0,0"/>
  <path id="Path_12" data-name="Path 12" class="cls-1" d="M282.479,189.821a36.116,36.116,0,0,1,29.491,15.3,22.69,22.69,0,0,0,37.1-26.132,81.453,81.453,0,1,0-1.3,95.6,22.691,22.691,0,0,0-36.379-27.13,36.228,36.228,0,0,1-28.912,14.506,36.074,36.074,0,0,1,0-72.148ZM231.5,225.893a51.261,51.261,0,0,0,50.982,50.982,51.215,51.215,0,0,0,40.867-20.5,7.78,7.78,0,0,1,12.472,9.3,66.543,66.543,0,1,1,1.064-78.1,7.78,7.78,0,0,1-12.72,8.962A51.043,51.043,0,0,0,231.5,225.893Zm0,0" transform="translate(-1.202 -0.864)"/>
  <path id="Path_13" data-name="Path 13" class="cls-1" d="M233.117,135.816a27.3,27.3,0,1,0-27.3,27.293A27.324,27.324,0,0,0,233.117,135.816Zm-39.679,0A12.384,12.384,0,1,1,205.824,148.2,12.4,12.4,0,0,1,193.438,135.816Zm0,0" transform="translate(-1.068 -0.649)"/>
  <path id="Path_14" data-name="Path 14" class="cls-1" d="M208.482,335.688H224.7a7.455,7.455,0,0,0,0-14.91H208.482a7.455,7.455,0,1,0,0,14.91Zm0,0" transform="translate(-1.202 -1.918)"/>
  <path id="Path_15" data-name="Path 15" class="cls-1" d="M286.331,347.426H208.482a7.455,7.455,0,1,0,0,14.91h77.848a7.455,7.455,0,0,0,0-14.91Zm0,0" transform="translate(-1.202 -2.077)"/>
  <path id="Path_16" data-name="Path 16" class="cls-1" d="M286.331,368.777H208.482a7.455,7.455,0,1,0,0,14.91h77.848a7.455,7.455,0,0,0,0-14.91Zm0,0" transform="translate(-1.202 -2.205)"/>
  <path id="Path_17" data-name="Path 17" class="cls-1" d="M247.895,403.984h-8.484a18.086,18.086,0,0,0-18.067,18.067v36.775A18.089,18.089,0,0,0,239.411,476.9h8.484a18.089,18.089,0,0,0,18.067-18.071V422.052A18.088,18.088,0,0,0,247.895,403.984Zm3.157,54.846a3.162,3.162,0,0,1-3.157,3.157h-8.484a3.162,3.162,0,0,1-3.157-3.157V422.052a3.162,3.162,0,0,1,3.157-3.157h8.484a3.162,3.162,0,0,1,3.157,3.157Zm0,0" transform="translate(-1.324 -2.416)"/>
  <path id="Path_18" data-name="Path 18" class="cls-1" d="M208.568,403.984h-.14a7.455,7.455,0,0,0-.035,14.91h.14a7.455,7.455,0,0,0,.035-14.91Zm0,0" transform="translate(-1.202 -2.416)"/>
</svg>
