<svg id="humidity-2" xmlns="http://www.w3.org/2000/svg" width="317.768" height="485.527" viewBox="0 0 317.768 485.527">
  <defs>
    <style>
      .cls-1 {
        fill: none;
      }

      .cls-1, .cls-2 {
        fill-rule: evenodd;
      }

      .cls-2 {
        fill: #48742b;
      }
    </style>
  </defs>
  <path id="Path_19" data-name="Path 19" class="cls-1" d="M159.4,476.562a149.437,149.437,0,0,0,131.858-219.69h.007L159.4,10,27.532,256.872h.015A149.431,149.431,0,0,0,159.4,476.562Zm0,0" transform="translate(-0.517 -0.517)"/>
  <path id="Path_20" data-name="Path 20" class="cls-1" d="M112.528,260.23A29.229,29.229,0,1,1,83.3,289.457,29.225,29.225,0,0,1,112.528,260.23Zm101.327,97.186a29.229,29.229,0,1,1-29.23,29.227A29.227,29.227,0,0,1,213.854,357.416Zm0,0" transform="translate(-4.307 -13.455)"/>
  <path id="Path_21" data-name="Path 21" class="cls-2" d="M299.306,252.269c-.059-.13-.126-.256-.193-.382L167.248,5.016a9.482,9.482,0,0,0-16.729,0L85.343,127.031a9.483,9.483,0,0,0,16.729,8.938L158.884,29.612l123.3,230.843c.063.122.122.244.189.367A140.155,140.155,0,0,1,298.8,326.643c0,77.153-62.769,139.918-139.918,139.918S18.966,403.8,18.966,326.643a140.144,140.144,0,0,1,16.425-65.821c.07-.126.133-.256.2-.382l30.738-57.546A9.483,9.483,0,0,0,49.6,193.96L18.655,251.887c-.07.13-.141.263-.2.4A159.148,159.148,0,0,0,0,326.643c0,87.61,71.274,158.884,158.884,158.884s158.884-71.274,158.884-158.884A159.159,159.159,0,0,0,299.306,252.269Zm0,0" transform="translate(0 0)"/>
  <path id="Path_22" data-name="Path 22" class="cls-2" d="M208.381,262.841a9.483,9.483,0,0,0-12.954,3.471L117.985,400.444a9.483,9.483,0,1,0,16.425,9.483l77.442-134.132A9.484,9.484,0,0,0,208.381,262.841Zm0,0" transform="translate(-6.035 -13.524)"/>
  <path id="Path_23" data-name="Path 23" class="cls-2" d="M112.011,250.23a38.712,38.712,0,1,0,38.71,38.71A38.754,38.754,0,0,0,112.011,250.23Zm0,58.457a19.746,19.746,0,1,1,19.744-19.744A19.766,19.766,0,0,1,112.011,308.688Zm0,0" transform="translate(-3.79 -12.938)"/>
  <path id="Path_24" data-name="Path 24" class="cls-2" d="M180.148,391.425a38.712,38.712,0,1,0,38.713-38.71A38.758,38.758,0,0,0,180.148,391.425Zm38.713-19.744a19.746,19.746,0,1,1-19.748,19.744A19.766,19.766,0,0,1,218.862,371.681Zm0,0" transform="translate(-9.314 -18.237)"/>
  <path id="Path_25" data-name="Path 25" class="cls-2" d="M79.452,182.923a9.483,9.483,0,1,0-9.483-9.483A9.5,9.5,0,0,0,79.452,182.923Zm0,0" transform="translate(-3.618 -8.477)"/>
</svg>
