<svg xmlns="http://www.w3.org/2000/svg" width="3419.3" height="881.112" viewBox="0 0 3419.3 881.112">
  <defs>
    <style>
      .cls-1, .cls-2, .cls-3, .cls-4 {
        fill: none;
        stroke-linecap: round;
      }

      .cls-1 {
        stroke: #48742b;
      }

      .cls-1, .cls-2 {
        stroke-linejoin: round;
      }

      .cls-1, .cls-2, .cls-4 {
        stroke-width: 70px;
      }

      .cls-2, .cls-3, .cls-4 {
        stroke: #121212;
      }

      .cls-3 {
        stroke-width: 60px;
      }
    </style>
  </defs>
  <g id="Logo_MAce" data-name="Logo MAce" transform="translate(35 35.047)">
    <path id="Path_1" data-name="Path 1" class="cls-1" d="M2697.653,1150.2l-336.9,783.829h695.8Z" transform="translate(-1378.223 -1150.195)"/>
    <path id="Path_2" data-name="Path 2" class="cls-2" d="M1603.617,2001.884V1198.431l359.777,765.478,374.4-765.478v803.454" transform="translate(-1603.617 -1198.431)"/>
    <g id="Group_2" data-name="Group 2" transform="translate(2794.149 16.233)">
      <g id="Group_1" data-name="Group 1">
        <path id="Path_3" data-name="Path 3" class="cls-3" d="M4356.583,1187H3816v795.329h560.151" transform="translate(-3815.997 -1187.003)"/>
      </g>
      <path id="Path_4" data-name="Path 4" class="cls-3" d="M3816,1481.293h510.011" transform="translate(-3815.997 -1098.732)"/>
    </g>
    <path id="Path_5" data-name="Path 5" class="cls-4" d="M3700.684,1360.409S3648.2,1177.5,3427.831,1170.927c-3.3-.2,3.4.061,0,0-186.022-19.8-361.666,135.987-355.58,406.848s148.555,385.435,296.167,400.5,268.2-53.781,340.035-235.122" transform="translate(-1170.623 -1169.242)"/>
  </g>
</svg>
